<!--?xml version="1.0" encoding="utf-8"?-->
<!-- Generator: Adobe Illustrator 22.1.0, SVG Export Plug-In . SVG Version: 6.00 Build 0)  -->
<svg version="1.1" id="_x31_1" xmlns="http://www.w3.org/2000/svg" xmlns:xlink="http://www.w3.org/1999/xlink" x="0px" y="0px" viewBox="0 0 800 716.559" style="enable-background:new 0 0 800 716.559;" xml:space="preserve">
<style type="text/css">
	.st0{fill:#53B232;}
</style>
<g>
	<path class="st0" d="M384.801,371.041c4.476-7.459,10.448-16.397,7.466-25.365c-2.99-8.938-49.213-153.578-52.187-229.626
		c-2.988-76.064,31.313-108.856,82.012-105.883c0,0,59.645-41.746,140.162,61.147c0,0,135.693,10.434,132.72,117.795
		c0,0,38.763,86.496-86.489,113.325c-125.261,26.845-193.851,43.242-202.803,55.184c-8.946,11.912-10.434,31.313,1.495,29.817
		c11.926-1.479,122.27-40.25,187.894-46.228c65.6-5.965,189.382-1.496,190.868,95.449c0,0,23.855,41.73,4.469,84.986
		c-19.385,43.241-53.68,59.652-53.68,59.652S726.28,697.61,623.393,703.559c0,0-95.433,4.483-126.747-64.106
		c-31.313-68.606-82.012-237.099-102.892-237.099c-20.874,0-14.909,22.36-11.928,31.312c2.975,8.954,37.277,129.721,38.765,168.509
		c1.502,38.772-17.891,123.758-68.591,92.444c-26.844,26.845-68.59,28.34-95.433-4.483c-49.213,0-77.544-19.371-79.03-47.71
		c-26.845-35.781-14.918-140.17,52.185-168.509c67.102-28.323,129.737-34.286,132.71-50.699c2.99-16.395-1.487-29.817-19.378-35.782
		c-17.899-5.963-138.674,98.409-256.476,62.627c-56.671-23.854-49.213-53.688-49.213-53.688s-77.542-67.096-2.989-141.649
		C46.312,184.641,79.12,126.484,144.721,145.87c31.327-25.35,102.9,14.917,122.278,68.589
		c19.394,53.69,86.488,165.52,99.911,167.014C380.331,382.967,384.801,371.041,384.801,371.041z"></path>
</g>
</svg>
