<?xml version="1.0" encoding="UTF-8" standalone="no"?>
<!-- Created with Inkscape (http://www.inkscape.org/) -->
<svg
   xmlns:dc="http://purl.org/dc/elements/1.1/"
   xmlns:cc="http://web.resource.org/cc/"
   xmlns:rdf="http://www.w3.org/1999/02/22-rdf-syntax-ns#"
   xmlns:svg="http://www.w3.org/2000/svg"
   xmlns="http://www.w3.org/2000/svg"
   xmlns:sodipodi="http://sodipodi.sourceforge.net/DTD/sodipodi-0.dtd"
   xmlns:inkscape="http://www.inkscape.org/namespaces/inkscape"
   id="svg5809"
   sodipodi:version="0.32"
   inkscape:version="0.44.1"
   width="349"
   height="552"
   version="1.0"
   sodipodi:docbase="E:\SVG"
   sodipodi:docname="JaneAustenSilhouette.svg">
  <metadata
     id="metadata5814">
    <rdf:RDF>
      <cc:Work
         rdf:about="">
        <dc:format>image/svg+xml</dc:format>
        <dc:type
           rdf:resource="http://purl.org/dc/dcmitype/StillImage" />
      </cc:Work>
    </rdf:RDF>
  </metadata>
  <defs
     id="defs5812" />
  <sodipodi:namedview
     inkscape:window-height="721"
     inkscape:window-width="1024"
     inkscape:pageshadow="2"
     inkscape:pageopacity="0.0"
     guidetolerance="10.0"
     gridtolerance="10.0"
     objecttolerance="10.0"
     borderopacity="1.0"
     bordercolor="#666666"
     pagecolor="#ffffff"
     id="base"
     inkscape:zoom="0.69021739"
     inkscape:cx="174.5"
     inkscape:cy="276"
     inkscape:window-x="-4"
     inkscape:window-y="-4"
     inkscape:current-layer="svg5809" />
  <path
     style="fill:black"
     d="M 227.5,537.90768 C 217.83573,536.58904 214.4504,535.9508 209,534.41986 C 205.975,533.57018 201.23554,532.30998 198.46786,531.61942 C 195.70019,530.92886 191.91855,529.60699 190.06423,528.68193 C 188.2099,527.75687 186.28799,527 185.79331,527 C 185.29863,527 183.23831,525.875 181.21481,524.5 C 179.19132,523.125 176.5489,522 175.34278,522 C 170.68245,522 129.19788,495.97675 118,486.0289 C 115.525,483.83019 113.16764,482.02421 112.76143,482.01562 C 112.35522,482.00703 111.0532,481.2125 109.86806,480.25 C 107.70379,478.49231 93.805897,466.67041 88.41325,462 C 85.226563,459.24011 84.399301,458.63319 74.40702,451.7244 C 63.835085,444.41483 50.991349,436 50.406531,436 C 48.705562,436 41.463615,428.85183 38.811671,424.55528 C 34.124543,416.96144 32.618199,409.97111 32.550555,395.5 C 32.503459,385.42483 33.324547,377.88599 34.92653,373.6849 C 36.236348,370.25 36.326745,365.31997 35.09388,364.55802 C 33.31779,363.46034 35.297572,360.00418 41.616424,353.17144 C 45.141945,349.3592 49.060426,344.72358 50.324159,342.87005 C 55.850494,334.76453 60.665135,328.28364 63.228326,325.5 C 64.747656,323.85 65.992827,322.23135 65.995373,321.90301 C 65.997918,321.57467 66.959858,320.22467 68.133018,318.90301 C 69.306177,317.58135 71.727269,314.25 73.51322,311.5 C 75.299172,308.75 77.710296,305.64639 78.871274,304.60309 C 82.417756,301.41609 85.687171,294.76466 86.294978,289.5 C 87.008812,283.31697 91.072766,275.13531 97.222709,267.5 C 99.747062,264.36595 103.06147,258.60326 103.62033,256.3766 C 103.97531,254.96225 105.84085,251.74155 107.76597,249.2195 C 110.88181,245.13754 111.45599,243.38554 112.99445,233.26589 C 114.86626,220.95353 114.37125,214.33478 111.29754,210.57625 C 110.36366,209.43431 106.37993,205.35 102.4448,201.5 C 98.509668,197.65 94.662261,193.6 93.895007,192.5 C 93.127753,191.4 89.237636,188.04938 85.250301,185.05419 C 81.262967,182.05899 76.808573,177.88827 75.351648,175.78593 C 72.146387,171.16073 69.147505,170.24587 63.92116,172.29883 C 58.052309,174.60418 50.653482,173.76454 46.307532,170.29997 C 44.375773,168.75999 41.989307,167.03243 41.004274,166.46096 C 40.019241,165.88949 38.469099,164.80428 37.559515,164.04939 C 35.548745,162.3806 30.460937,151.98127 30.819526,150.27305 C 30.961185,149.59823 29.230451,145.50745 26.973451,141.18243 C 24.716452,136.85741 22.766883,132.61743 22.641077,131.76026 C 22.515271,130.90309 21.757062,129.39499 20.956169,128.40892 C 20.155276,127.42286 19.959796,126.89055 20.521768,127.226 C 21.552606,127.84134 22.884273,124.87197 26.893029,113.01926 C 28.098563,109.45485 30.078304,105.47356 31.292454,104.17194 C 34.961754,100.2383 40.599464,97.863242 45.052991,98.374886 C 51.125654,99.072544 53.617054,95.000203 51.084535,88.515968 C 49.46859,84.378519 50.844419,82.957758 56.280642,83.150166 C 60.590781,83.302718 61.623256,82.958377 63.410321,80.772347 C 64.559644,79.366436 67.75,75.426245 70.5,72.016368 C 73.25,68.60649 79.302607,62.595358 83.950239,58.658295 C 92.746034,51.207275 93.168665,50.888724 102.41884,44.737914 C 109.13173,40.274246 134.12849,27.422523 135.35526,27.804131 C 135.82565,27.950454 136.72565,27.678223 137.35526,27.199172 C 139.00201,25.946204 150.01826,22.684922 150.60887,23.275535 C 150.88216,23.548829 153.21947,23.133886 155.80288,22.353439 C 162.42677,20.35237 180.52482,19.460316 186.57146,20.836854 C 189.28215,21.453954 195.1,22.173781 199.5,22.43647 C 220.13798,23.668596 228.522,25.682961 241.5,32.52749 C 261.64075,43.149615 260.1989,42.141206 269.87583,52.37318 C 272.28254,54.917931 274.62939,57 275.09104,57 C 276.43471,57 282.99877,63.093597 283.01238,64.353592 C 283.01919,64.984116 284.53387,66.477099 286.37834,67.671331 L 289.73193,69.842663 L 289.58763,78.671331 C 289.41887,88.995753 287.59011,95.525844 284.2183,97.843942 C 278.25949,101.94059 278.2464,101.97583 278.54536,113.11664 C 278.69861,118.82749 278.86359,124.03218 278.912,124.68261 C 278.9604,125.33305 279.9,126.15087 281,126.5 C 282.27724,126.90538 283,128.01303 283,129.56507 C 283,130.90174 284.52219,134.13391 286.38263,136.74769 C 288.24308,139.36146 291.00463,143.975 292.51941,147 C 294.03418,150.025 296.787,154.87124 298.63677,157.76942 C 300.48655,160.6676 302,163.82997 302,164.79691 C 302,168.17043 298.96451,170.83719 292.02578,173.5595 C 282.63033,177.24568 281.50403,178.65026 281.4832,186.70693 C 281.46896,192.21193 281.12542,193.48003 279.2332,195.01225 C 277.68225,196.26814 277,197.90368 277,200.36588 C 277,202.51831 275.99676,205.38954 274.44643,207.67408 C 272.75316,210.16925 272.08583,212.20586 272.46565,213.71918 C 274.27759,220.9385 274.18569,224.71569 272.09858,228.80677 C 270.93021,231.09696 268.96222,233.63388 267.72526,234.44436 C 262.9603,237.56648 246.38804,241.62783 234.5,242.58685 C 224.64355,243.38197 220.66278,244.84441 215.65162,249.51127 C 207.83005,256.79544 203.13177,271.54868 206.48992,278.28024 C 207.32046,279.94511 208,282.14496 208,283.16879 C 208,285.24476 213.35959,295.40092 216.09055,298.5 C 217.62508,300.24138 220.94414,308.18504 220.98545,310.2152 C 220.99345,310.60857 219.68478,312.42836 218.07729,314.25919 C 215.30076,317.42148 215.20398,317.83585 216.14229,322.54399 C 216.68553,325.26979 217.39372,328.175 217.71604,329 C 218.03836,329.825 218.41642,331.0429 218.55617,331.70645 C 219.25457,335.02266 227.09475,348.81433 232.1469,355.61392 C 238.06997,363.58569 253.43379,378 256.00761,378 C 256.55342,378 257.01411,378.3375 257.03135,378.75 C 257.0486,379.1625 260.10229,381.75 263.81734,384.5 C 267.53239,387.25 273.03078,392.34925 276.03599,395.83166 C 279.04119,399.31408 282.00313,402.71007 282.61807,403.3783 C 283.23301,404.04654 284.04574,405.56876 284.42415,406.76102 C 285.11799,408.94713 293.54654,417 295.14079,417 C 295.61336,417 296,418.035 296,419.3 C 296,420.565 296.52649,422.12649 297.16997,422.76997 C 298.04139,423.64139 298.06178,424.90453 297.24987,427.71997 C 296.65033,429.79899 295.66083,433.95324 295.05096,436.95165 C 293.9554,442.33805 287.78759,454.4025 281.80964,462.85216 C 280.11616,465.24585 274.56528,471.54585 269.47437,476.85216 C 252.09433,494.96755 249.81115,499.28123 249.54785,514.5 C 249.4487,520.23066 249.95206,526.75492 250.72687,529.78166 C 252.1,535.14575 251.79285,537.21087 249.67459,536.85658 C 249.02857,536.74853 246.475,536.9929 244,537.39963 C 237.13691,538.52746 232.9803,538.65544 227.5,537.90768 z "
     id="path5818" />
</svg>
