<!--?xml version="1.0" encoding="utf-8"?-->
<!-- Generator: Adobe Illustrator 22.1.0, SVG Export Plug-In . SVG Version: 6.00 Build 0)  -->
<svg version="1.1" id="_x32_" xmlns="http://www.w3.org/2000/svg" xmlns:xlink="http://www.w3.org/1999/xlink" x="0px" y="0px" viewBox="0 0 790.77 800" style="width: 495px;" xml:space="preserve">
<style type="text/css">
	.st0{fill:#040000;}
</style>
<g>
	<path class="st0" d="M756.549,747.612c-5.128-6.16-30.824-68.866-30.824-68.866s2.044-9.253-2.063-14.399
		c-4.141-5.146-73-151.122-81.229-164.48c-8.214-13.368-16.428-42.15-16.428-46.265c0-4.106-20.566-28.78-31.882-29.802
		c-11.316-1.05-71.961-1.05-71.961-1.05s-14.399-14.371-9.271-15.412c10.293,8.232,25.734,6.169,29.82,5.137
		c4.106-1.022,58.584-9.243,58.584-14.39c0-3.321,23.724-16.124,40.425-24.747c3.156,3.112,7.353,7.008,11.769,12.155
		c9.255,10.794,60.92,107.173,66.304,105.641c0,0,20.824,24.655,25.459,26.208c4.618,1.542,16.954-3.086,23.871-6.188
		c6.934-3.057,3.87-7.692-0.748-4.618c-4.634,3.095-14.655,4.618-20.021,4.618c-5.42,0-23.926-22.338-23.926-22.338
		s4.618-2.317,0.749-4.636c-3.321-1.998-55.372-92.884-69.644-117.84c1.479-0.73,2.336-1.149,2.336-1.149
		s33.929-41.111,35.971-46.255c2.044-5.137,0-7.201,0-7.201s23.635-47.296,20.568-52.433c0-6.159,6.15-53.463,8.214-57.56
		c2.061-4.117,2.042-33.938-2.063-34.967c-4.106-1.013-14.38,6.167-14.38,6.167s2.025-13.359-3.086-13.359
		c-5.128,0-13.377,12.338-13.377,12.338s-12.228,23.149-16.188,32.385c-2.299,5.392-9.234,26.982-15.659,37.532
		c-4.853,7.929-9.271,24.656-14.418,32.895c-5.109,8.214-27.739,33.928-27.739,33.928s-33.928,27.748-39.092,30.834
		c-5.128,3.084-19.511,10.282-24.657,12.336c-5.147,2.054-19.546,2.054-26.719,1.031c-3.084-3.085-68.856-38.043-81.194-44.201
		c-3.121-5.146-46.281-41.136-65.811-45.242c7.172-5.137-15.422-19.539-29.821-31.875c-14.38-12.329-66.814-54.478-75.044-65.782
		c-8.23-11.316-60.663-49.35-60.663-49.35s-15.422-15.429-25.697-26.726c-10.275-11.316-30.824-5.146-30.824-5.146
		c17.466-16.444,3.084-34.958-10.293-35.98c-13.377-1.032-24.674,12.336-26.735,18.495c0,0-0.458,0.101-1.224,0.256
		c1.313-81.479,28.251-59.54,37.614-56.001c-37.358-35.99-40.497,43.043-40.752,56.621c-1.06,0.209-2.19,0.447-3.341,0.684
		c-3.521,0.694-7.737,3.304-14.326,3.158C86.476,52.163,46.198-12.846,1.977,30.069c14.199-5.995,49.367-34.411,89.389,41.647
		c-6.807,0.686-13.96,5.055-14.599,15.395c-0.766,12.336,10.037,19.271,10.037,19.271s0,8.486-0.785,15.431
		c-0.785,6.926,3.086,7.702,6.935,8.477c3.852,0.767,8.468-1.551,8.468-1.551s0,0,3.87,0c3.85,0,13.87-10.019,16.188-11.561
		c2.317-1.543,8.486-8.486,13.121-9.254c4.618-0.776,36.227,21.591,38.544,23.132c1.168,0.776,7.173,5.194,12.775,9.309
		c-0.51,1.797-0.766,3.84-0.566,6.214c1.022,14.792-6.807,24.956-2.663,40.013c4.106,15.067,12.792,76.177,13.542,85.521
		c0.728,9.353,1.295,21.005-3.377,21.37c-4.672,0.383-27.137-8.513-42.96-4.451c-15.823,4.051-103.205-5.777-117.038-6.944
		c-13.817-1.197-35.167,13.212-22.613,28.998c8.469,10.623,54.715,37.788,90.231,54.724c-11.48,5.192-19.384,8.997-20.641,10.054
		c-4.982,4.235-8.469,7.704-12.721,11.553c-4.235,3.852-3.067-0.392-6.533,0.776c-3.486,1.149-10.038,57.834-4.235,77.117
		c0.493,1.678,1.114,3.276,1.789,4.808l-3.723,37.193c0,0-5.403,5.404-10.785,6.16c-5.402,0.785-13.123-2.317-17.74-2.317
		c-4.635,0-6.952,3.868-3.084,3.868c3.851,0,8.486,0,11.553,1.544c3.083,1.542,6.935,3.093,11.551,1.542
		c4.636-1.542,12.338-9.252,12.338-9.252s2.592-26.373,3.029-32.688c7.428,11.936,18.634,17.976,21.645,19.2
		c3.887,1.542-9.6-10.796-16.552-21.59c-1.497-2.308-2.355-7.109-2.738-13.203c4.198,1.378,8.997,2.755,9.781,2.042
		c0.839-0.747-4.945-3.539-9.946-5.757c-0.054-1.697-0.091-3.467-0.091-5.302c2.482,0.74,4.672,1.215,5.146,0.794
		c0.51-0.465-2.063-1.88-5.146-3.339c0.018-1.25,0.037-2.491,0.073-3.76c2.937,0.914,5.84,1.643,6.388,1.151
		c0.585-0.521-2.756-2.254-6.296-3.889c0.073-2.024,0.165-4.059,0.291-6.113c3.485,0.528,7.372,0.949,7.884,0.282
		c0.529-0.656-3.668-1.96-7.739-3.001c0.073-1.25,0.184-2.501,0.275-3.76c3.486,0.538,7.354,0.959,7.902,0.292
		c0.529-0.656-3.686-1.943-7.72-2.992c1.297-15.769,3.396-29.419,4.636-29.776c2.682-0.776,6.935,1.926,10.768,2.702
		c3.869,0.776,8.869-6.944,11.588-8.104c0.802-0.347,2.811-0.841,5.311-1.379c0.401,4.289,1.004,8.267,1.934,8.724
		c0.931,0.465,1.46-4.242,1.732-9.49c1.06-0.218,2.136-0.437,3.25-0.656c0.346,4.534,0.985,8.905,1.934,9.361
		c1.022,0.502,1.532-4.616,1.807-10.12c3.321-0.684,6.369-1.314,8.303-1.824c0.601-0.165,1.588-0.367,2.902-0.62
		c0.51,5.483,1.277,10.439,2.463,11.022c1.222,0.611,1.899-5.201,2.301-11.861c1.605-0.275,3.394-0.576,5.328-0.886
		c0.493,5.238,1.26,9.873,2.409,10.43c1.187,0.583,1.844-4.818,2.227-11.206c1.459-0.247,2.973-0.503,4.526-0.767
		c0.492,5.556,1.277,10.621,2.499,11.215c1.224,0.601,1.899-5.293,2.301-12.028c3.029-0.529,6.131-1.058,9.107-1.624
		c0.693,4.343,1.605,7.739,2.884,8.248c1.386,0.548,2.282-3.687,2.846-9.334c1.699-0.338,3.358-0.693,4.947-1.013
		c0.675,7.363,1.824,14.956,3.777,15.741c2.009,0.795,2.956-8.432,3.431-17.447c2.336-0.648,4.216-1.25,5.438-1.835
		c8.869-4.242,19.638-18.495,20.805-19.664c1.149-1.149,7.337-5.394,11.572-6.561c4.233-1.149,38.928-25.048,42.011-28.899
		c3.084-3.859,3.084-18.888-0.747-37.01c-3.851-18.124-32.029-110.641-36.264-112.951c-4.233-2.318,7.319-2.701,15.804,0
		c8.487,2.693,90.978,85.967,91.763,87.502c0.766,1.551,29.675,33.926,29.675,33.926s1.551,0.766,5.42,10.804
		c3.832,10.019,28.506,34.686,30.46,41.245c0.73,2.556,0.895,8.432,0.858,14.81c-6.515-2.345-16.681-5.556-19.783-4.015
		c-4.618,2.318-6.15,8.486-3.065,14.646c1.386,2.755,3.977,17.648,6.916,34.902c-1.405,0.056-2.719,0.119-3.851,0.183
		c-6.533,0.374-45.461,9.234-57.031,11.955c-11.571,2.691-51.283,11.943-60.536,13.495c-9.234,1.534-10.402-0.402-14.253,9.628
		c-11.57,5.784-45.863,121.819-48.601,127.222c-2.682,5.394-8.084,22.357-8.85,24.282c-0.766,1.925-7.337,13.104-13.123,19.28
		c-5.748,6.169-9.216,7.328-15.02,11.571c-5.784,4.224-18.122,9.253-24.656,10.785c-6.588,1.542-21.59,0.393-23.908,0.776
		c-2.317,0.374-5.402,3.468-6.169,5.01c-0.766,1.533,2.701,6.169,4.636,7.328c1.897,1.159,1.897-5.01,3.065-6.159
		c1.168-1.168,10.404,0,10.404,0s0.4,3.849,1.934,3.449c1.551-0.376,4.617-6.159,4.617-6.159l6.569,0.393
		c0,0,0.383,4.232,2.301,4.232c1.934,0,3.467-5.008,3.467-5.008l6.935-2.712c0,0,3.084,3.488,5.786,2.712
		c2.719-0.776,1.934-5.02,3.084-4.637c1.149,0.402,11.588-7.701,11.588-7.701s0.383,2.317,2.684,2.693
		c2.317,0.383,2.317-5.786,4.232-7.32c1.936-1.542,16.973-21.598,19.675-24.291c2.701-2.682,8.468-23.13,10.019-30.824
		c1.532-7.728,43.564-110.276,43.564-110.276s1.168-1.534,4.233,0c3.086,1.551,20.058-6.561,23.907-8.087
		c3.852-1.541,65.155-12.719,74.79-13.504c6.04-0.484,21.717-3.093,32.521-4.973c2.446,14.033,4.874,26.881,6.809,33.496
		c5.401,18.507,0.766,23.142,2.298,25.459c1.552,2.31,0.786,20.805-1.532,20.048c-2.317-0.785-3.851-10.028-10.803-6.953
		c-6.936,3.095,6.186,3.87,8.486,10.806c2.317,6.935,8.467,5.392,9.271,1.523c0.766-3.843-0.804-30.824,0-35.461
		c0.437-2.646-2.465-28.096-5.567-50.497c1.314-0.228,2.099-0.374,2.099-0.374s8.067-1.561,10.002-3.487
		c1.934-1.925,7.72-10.01,8.869-11.944c1.168-1.917,10.804-12.329,10.804-12.329s10.275,7.191,15.403,6.169
		c5.146-1.041,2.044-15.431,1.041-27.767c-1.041-12.328,2.061-12.328,5.147-10.274c3.083,2.042,19.546,24.665,23.633,30.841
		c4.106,6.169,30.824,43.171,30.824,43.171s5.147,4.106,15.441,10.294c10.274,6.159,61.686-1.041,68.877-2.063
		c7.19-1.03,24.675,10.284,30.841,13.36c6.151,3.083,8.232,16.444,19.546,30.852c11.28,14.399,81.178,172.701,82.2,176.816
		c1.039,4.106,7.227,6.159,10.294,9.243c3.103,3.084,28.799,68.884,30.879,73.001C751.421,754.812,784.29,798,788.415,798
		C792.539,798,761.696,753.78,756.549,747.612z M219.41,317.647c-14.272,3.45-65.099,24.474-101.343,40.333
		c-3.212-1.542-6.406-3.093-9.435-4.571c1.276-3.003,2.263-5.83,1.77-6.498c-0.494-0.675-2.428,1.962-4.472,5.175
		c-2.39-1.187-4.672-2.31-6.77-3.368c1.699-3.732,3.377-7.91,2.757-8.742c-0.585-0.811-3.304,3.185-5.748,7.22
		c-2.811-1.443-5.238-2.684-7.119-3.678c1.716-3.769,3.486-8.094,2.848-8.951c-0.604-0.822-3.358,3.276-5.84,7.353
		c-1.515-0.829-3.212-1.741-5.055-2.719c1.368-3.156,2.445-6.213,1.916-6.916c-0.494-0.684-2.536,2.117-4.635,5.457
		c-2.427-1.295-5.019-2.691-7.666-4.133c0.985-2.501,1.662-4.625,1.241-5.211c-0.437-0.567-1.934,1.296-3.65,3.888
		c-8.432-4.635-17.156-9.673-23.05-13.861c-5.95-4.251-12.155-10.804-6.662-11.871c2.721-0.53,15.13,3.248,29.292,7.227
		c-0.254,3.394-0.219,6.233,0.512,6.761c0.728,0.529,1.807-2.145,2.9-5.805c2.994,0.832,6.06,1.652,9.071,2.446
		c-0.402,4.235-0.51,8.132,0.347,8.761c0.875,0.628,2.226-3.168,3.467-7.793c2.738,0.675,5.403,1.296,7.976,1.852
		c-0.585,4.901-0.877,9.838,0.146,10.575c0.967,0.703,2.555-4.298,3.96-9.745c0.675,0.129,1.349,0.247,1.988,0.366
		c0,3.257,0.219,5.921,0.968,6.396c0.747,0.475,1.642-2.207,2.463-5.866c2.08,0.273,3.979,0.447,5.695,0.519
		c0.256,4.792,0.785,9.509,1.861,10.038c1.076,0.528,1.807-4.499,2.3-10c1.88,0,3.96,0.036,6.186,0.045
		c0.219,5.265,0.731,10.905,1.934,11.497c1.152,0.585,1.936-5.41,2.409-11.459c1.297,0.007,2.646,0.007,4.017,0.035
		c0.401,2.792,0.949,4.928,1.678,5.264c0.73,0.348,1.224-1.97,1.589-5.255c1.497,0.018,3.029,0.018,4.58,0.028
		c0.384,5.236,1.096,10.83,2.282,11.386c1.168,0.538,1.77-5.375,2.061-11.386c19.163,0,40.316-0.411,49.623-2.484
		c14.984-3.356,18.852-15.986,18.852-15.986s9.49-4.516,12.447-19.409c0.585,7.976,0.548,13.906-0.475,16.124
		C214.007,310.703,219.41,317.647,219.41,317.647z M387.477,402.073c-0.165,0.547-3.358,0.82-7.356,1.012
		c-1.076-6.213-2.007-10.714-2.646-12.192c-3.103-6.943-0.785-16.197-0.785-16.197s4.982,4.482,9.727,6.634
		C387.167,385.091,387.86,400.977,387.477,402.073z"></path>
</g>
</svg>
