<!--?xml version="1.0" encoding="utf-8"?-->
<!-- Generator: Adobe Illustrator 22.1.0, SVG Export Plug-In . SVG Version: 6.00 Build 0)  -->
<svg version="1.1" id="_x31__1_" xmlns="http://www.w3.org/2000/svg" xmlns:xlink="http://www.w3.org/1999/xlink" x="0px" y="0px" viewBox="0 0 800 603.099" style="enable-background:new 0 0 800 603.099;" xml:space="preserve">
<style type="text/css">
	.st0{fill:#040000;}
</style>
<g>
	<path class="st0" d="M796.33,571.764c0.503,0.352,0.958,0.623,1.309,0.712C798.523,572.702,797.666,572.306,796.33,571.764z
		 M778.566,565.736l-7.281-0.549c0,0-2.81-2.248-4.485-2.248c-1.689,0-5.039,0.561-6.741,0c-1.688-0.555-14.01-0.555-14.01-0.555
		s-38.136-29.727-38.703-31.414c-0.542-1.682-1.108-5.601-1.108-5.601s-43.05-64.776-58.332-87.757
		c0.201-0.271,0.391-0.553,0.567-0.837c14.022,1.114,49.349-5.052,42.621-24.126c-6.74-19.056-29.72-44.291-38.69-54.389
		c-8.983-10.093-17.953-86.913-85.243-95.316c-67.289-8.423-134.012-15.711-153.087-24.127c-6.326-2.79-13.494-5.008-20.512-6.299
		c-6.186-17.374-17.486-45.01-17.071-51.517c0.151-2.054-0.126-5.153-0.819-8.97c6.022-6.979,12.7-15.1,10.117-13.871
		c-1.914,0.92-6.588,4.586-11.263,8.435c-0.239-0.988-0.492-1.997-0.755-3.042c6.374-7.289,16.831-19.516,13.707-17.998
		c-2.521,1.203-9.715,7.074-15.484,11.925c-0.567-1.82-1.197-3.692-1.877-5.613c5.026-5.959,9.436-11.578,7.268-10.513
		c-1.587,0.75-5.026,3.363-8.793,6.407c-0.743-1.883-1.525-3.793-2.343-5.714c4.51-5.392,8.075-10.079,6.084-9.115
		c-1.423,0.681-4.371,2.873-7.71,5.537c-0.781-1.7-1.599-3.4-2.458-5.083c4.108-3.465,6.892-6.11,5.091-5.644
		c-1.248,0.321-3.654,1.442-6.54,2.897c-0.994-1.821-2.002-3.623-3.086-5.386c4.309-3.61,7.257-6.401,5.417-5.916
		c-1.311,0.334-3.969,1.582-7.093,3.182c-1.462-2.349-2.924-4.642-4.36-6.847c3.276-3.585,5.303-6.174,3.691-5.519
		c-1.058,0.435-2.972,1.599-5.266,3.124c-1.108-1.637-2.179-3.238-3.237-4.794c2.066-2.406,3.036-3.881,1.764-3.37
		c-0.681,0.271-1.713,0.85-2.974,1.644c-1.222-1.77-2.432-3.483-3.616-5.14c1.979-2.249,3.213-3.874,2.897-4.145
		c0.732-0.919,2.066-3.463,3.441-6.267c1.486,1.316,2.998,2.658,4.497,4.019c-2.13,4.245-3.957,8.22-2.81,7.287
		c0.87-0.724,2.747-3.029,4.686-5.575c0.77,0.693,1.537,1.399,2.293,2.105c-2.822,3.78-5.291,7.301-4.019,6.595
		c1.033-0.566,3.402-2.614,5.846-4.869c1.437,1.348,2.835,2.702,4.208,4.05c-1.991,5.222-4.145,11.264-2.935,10.016
		c0.982-0.988,3.124-4.44,5.127-7.836c1.222,1.228,2.419,2.443,3.579,3.678c-2.104,2.899-3.565,5.165-2.508,4.566
		c0.756-0.409,2.218-1.613,3.894-3.112c1.309,1.405,2.583,2.791,3.767,4.164c-1.689,4.712-3.188,9.322-2.13,8.221
		c0.795-0.825,2.357-3.326,3.97-6.098c1.195,1.424,2.33,2.816,3.363,4.184c-2.633,4.938-5.544,10.714-4.17,9.637
		c1.083-0.863,3.603-4.005,6.009-7.118c1.159,1.644,2.167,3.226,2.972,4.731c-2.985,3.943-5.732,7.837-4.397,7.1
		c1.009-0.549,3.238-2.476,5.581-4.643c0.417,0.964,0.731,1.871,0.92,2.721c0.089,0.397,0.176,0.807,0.277,1.217
		c-3.464,4.497-7.496,9.99-5.934,9.127c1.146-0.636,3.93-3.098,6.676-5.65c3.54,16.952,4.02,27.824,4.02,27.824
		s1.688,11.768,3.376,15.138c1.676,3.37,3.918,7.856,5.594,9.537c1.688,1.67,3.918,7.855,4.484,10.093
		c0.568,2.235,0.568,8.415,0.568,8.415l-1.676,5.039c0,0,2.797-0.566,3.363-2.249c0.555-1.669-0.566-16.258-0.566-16.258
		s-1.121-4.486-3.364-7.289c-2.242-2.803-4.485-3.918-5.606-7.856c-1.121-3.918-2.797-12.888-2.797-15.137
		c0-2.235,5.594-21.311,4.484-36.455c-1.134-15.137,7.849-37.493-35.893-64.422c-28.536-17.557-33.664-14.022-39.245-18.508
		c-5.618-4.473-12.901-3.426-16.277-2.292c-3.363,1.121-6.16-1.682-6.715,2.236c-0.542,3.679,18.62,102.843,36.725,141.628
		c-12.813-24.889-20.108-42.394-28.322-49.595c-0.832-0.725-1.525-1.386-2.143-2.01c-5.354-21.31-7.345-44.278-23.659-54.067
		c0,0,12.346-10.105,6.739-21.31c-5.607-11.22-21.871-10.104-21.871-10.104c-3.717-0.524-9.814-1.922-18.041-1.783
		c12.182-26.545,34.772-42.307,42.571-48.79c-25.524,15.849-39.245,38.754-44.386,48.846c-7.017,0.315-15.471,1.795-25.21,5.77
		c-8.592-5.02-49.676-27.162-101.861-23.686c15.737,1.122,59.707,0.466,98.812,25.002c-1.688,0.75-3.402,1.587-5.165,2.507
		c0,0-6.715-1.134-14.577,5.039c-7.849,6.168-4.485,34.2,16.265,34.2c2.81,3.365,11.212,16.272,13.454,16.825
		c2.243,0.562-4.484,13.469,6.728,18.508c-0.643,2.443-0.957,4.655-1.045,6.633c-1.726,0.101-2.91,0.668-3.061,1.859
		c-0.693,5.273-3.49,17.261-4.41,27.15c-0.933,9.89,12.296,80.442,12.296,80.442s-13.569-43.056-16.404-69.362
		c-2.86-26.294-19.288-66.509-26.596-83.36c-7.294-16.85-20.713-15.375-27.869-13.978c-7.157,1.398-9.84,11.063-9.84,11.063
		c-34.091,60.31-6.412,84.095-2.594,91.931c3.817,7.812,27.037,30.144,27.037,30.144s11.024,18.406,12.548,20.39
		c1.538,1.991,2.923,9.14,2.923,9.14s5.795,12.014,7.975,14.445c2.192,2.419,8.542,8.605,9.549,4.995
		c0.605-2.161-5.266-3.553-5.266-3.553s-4.7-6.507-6.551-10.143c0,0-3.264-7.937-4.019-11.785
		c-0.756-3.849-12.134-18.199-14.855-23.377c-2.734-5.179-13.141-14.577-21.103-29.021c-1.36-2.464-2.116-6.496-2.456-11.478
		c2.13,2.249,3.918,3.95,3.591,2.998c-0.353-1.033-2.053-3.805-3.755-6.438c-0.064-2.249-0.064-4.637,0-7.143
		c1.991,2.078,3.553,3.553,3.262,2.657c-0.314-0.931-1.688-3.193-3.173-5.518c0.075-1.429,0.125-2.885,0.225-4.372
		c1.387,1.398,2.332,2.193,2.091,1.475c-0.214-0.655-0.982-2.028-1.965-3.597c0.188-2.659,0.415-5.36,0.669-8.063
		c2.493,2.671,4.838,5.008,4.471,3.931c-0.378-1.114-2.355-4.259-4.17-7.075c0.302-3.029,0.643-6.04,1.008-8.982
		c2.028,2.122,3.667,3.678,3.365,2.758c-0.303-0.894-1.601-3.055-3.037-5.31c1.978-15.647,4.309-28.411,4.309-28.411
		s2.079,1.883,3.918,8.379c0.642,2.273,1.449,10.822,2.419,21.335c-2.948-0.17-4.536-0.044-3.414,0.636
		c0.704,0.429,1.978,0.964,3.615,1.569c0.202,2.312,0.417,4.687,0.643,7.106c-3.464-0.24-5.492-0.159-4.258,0.579
		c0.818,0.497,2.444,1.158,4.485,1.895c0.214,2.281,0.441,4.555,0.655,6.835c-3.995-0.308-6.464-0.265-5.14,0.524
		c0.945,0.566,2.935,1.348,5.405,2.223c0.138,1.341,0.29,2.671,0.415,3.975c-3.905-0.308-6.287-0.251-4.989,0.535
		c0.957,0.555,2.86,1.317,5.279,2.167c0.227,2.022,0.442,3.995,0.68,5.872c-4.938-0.468-8.29-0.536-6.79,0.371
		c1.171,0.693,3.892,1.726,7.206,2.828c0.214,1.6,0.441,3.124,0.655,4.555c-5.934-0.624-10.393-0.832-8.693,0.182
		c1.398,0.85,5.065,2.167,9.311,3.54c0.251,1.285,0.492,2.452,0.743,3.439c-7.66-0.907-14.64-1.473-12.586-0.238
		c1.94,1.158,8.177,3.212,14.313,5.089c0.63,1.486,1.285,3.188,1.977,4.996c-6.741-0.75-12.246-1.115-10.406,0
		c1.713,1.02,6.689,2.721,12.044,4.403c0.73,1.977,1.487,4.031,2.217,6.072c-4.397-0.384-7.257-0.384-5.846,0.467
		c1.147,0.68,3.793,1.681,7.018,2.771c2.507,6.86,4.787,12.945,5.984,14.916c2.519,4.07,14.123,16.668,17.298,21.18
		c3.15,4.528,14.048,30.973,15.673,36.365c1.637,5.393,10.369,20.832,29.078,14.319c18.722-6.521,11.175-89.029,8.026-99.279
		c-0.856-2.784-2.143-6.828-3.591-11.344c3.591,5.291,6.64,10.557,8.277,15.181c4.158,11.716,17.223,39.964,24.959,58.527
		c-3.199,1.241-5.581,5.784-6.45,12.693c-1.134,8.952-2.255,25.23,3.918,33.078c2.836,3.597,7.421,8.138,11.73,12.329
		c0.24,4.712-1.184,7.754,1.739,12.353c-2.81,7.836-2.81,21.858-1.121,37.55c1.674,15.711-0.568,18.514-0.568,18.514
		s-1.687,2.249-0.555,4.485c1.123,2.248,2.797,5.052,0.555,5.613c-2.242,0.555-14.01-2.816-30.842,5.607
		c-16.819,8.416-82.987,29.727-94.767,30.848c-11.78,1.115-19.629,7.281-24.115,11.206c-4.472,3.918-7.294,7.289-7.294,7.289
		s-17.941,8.416-32.24,25.79c-14.299,17.392-38.968,39.258-43.454,42.055c-4.484,2.815-6.728,5.052-6.728,6.74
		c0,1.682-17.385,8.404-20.762,8.97c-3.351,0.568-6.161,2.797-7.849,2.249c-1.663-0.566-14.011,0-17.374-1.681
		c-3.364-1.689-10.091-3.371-14.577-0.568c-4.497,2.797-4.497,6.734-2.81,5.613c1.676-1.128,6.728-2.816,6.728-2.816
		c3.931,1.134,7.862,1.134,7.862,1.134l3.918,1.682h7.283l14.022-1.128c0,0,1.688,1.683,3.931,1.128
		c2.242-0.561,21.316-10.653,23.547-10.097c2.255,0.566,4.485,0.566,5.606-1.121c1.133-1.683,17.953-20.757,22.992-25.23
		c5.054-4.485,36.448-35.9,40.934-38.137c4.485-2.248,14.022-11.767,14.022-11.767l6.727-2.255c0,0,3.931,4.486,8.416,2.804
		c4.485-1.682,11.78-6.735,15.698-9.525c3.931-2.797,60.576-19.635,77.948-23.006c17.374-3.35,33.085-5.605,42.622-14.577
		c5.04,5.052,14.577-8.97,15.145-15.692c5.594-2.249,12.333-34.211,11.767-44.302c2.255,28.031,5.052,35.319,9.537,35.319
		c-2.797,7.302-2.797,10.652,0,15.704c2.797,5.052,22.426,32.531,22.426,37.016c0,4.484,0,10.091,2.242,11.774
		c2.243,1.688,6.162,2.249,6.162,2.249s-1.11,109.904-1.663,112.153c-0.568,2.237-2.823,6.155-0.568,7.844
		c2.231,1.681,3.918,4.484,3.364,6.166c-0.567,1.683,3.35,16.258,0.554,18.508c-2.797,2.235-7.295,2.235-8.416,5.605
		c-1.108,3.365-4.473,1.682-1.108,3.365c3.35,1.687,5.606-1.116,7.837-2.797c2.255-1.689,4.484-1.689,4.484-1.689
		c2.255-2.249,2.823-7.849,2.255-11.774c-0.566-3.918-1.688-15.137-1.688-15.137s2.81-1.682,1.688-4.486
		c-1.121-2.803-1.121-48.788-0.566-51.036c0.566-2.237-0.555-61.684,0-63.92c0.566-2.249,1.134-7.289,1.134-7.289
		s5.607,8.976,12.321,7.289c-0.555,12.34,11.791,35.887,22.992,40.373c7.307,10.085,45.418,36.448,56.077,37.014
		c7.282,6.167,61.13,15.692,72.329,12.889c10.091,0,47.673-11.768,58.9-25.229c7.281,0.567,19.061-13.456,23.546-18.508
		c4.485-3.931,13.456-4.485,12.335-12.341c-1.134-7.849-8.416-16.251-12.901-16.251c-4.485,0-15.698-2.804-18.508-2.255
		c-2.809,0.566-71.774-38.13-86.906-54.943c39.295,25.398,96.217,40.965,119.626,32.347c17.033,25.317,50.571,75.479,51.402,79.24
		c1.122,5.052,2.243,11.219,3.92,11.773c1.687,0.566,5.052-3.918,5.052-3.918s37.569,34.765,39.243,35.88
		c1.689,1.122,6.175,3.938,6.175,3.938l2.809-3.938c0,0,8.404,3.371,11.214,2.803c2.809-0.567,10.091,1.682,12.346,2.249
		c2.231,0.555,10.08-1.128,12.322-0.567c2.242,0.567,6.728-1.114,6.728-1.114s3.326,1.246,5.43,2.091
		c-2.797-1.953-7.634-7.144-10.482-7.144C782.497,564.621,778.566,565.736,778.566,565.736z M340.571,99.697
		c-1.008-1.387-2.004-2.722-2.961-4.021c2.142-2.474,3.175-4.006,1.877-3.494c-0.717,0.295-1.827,0.918-3.175,1.77
		c-11.099-14.747-19.048-23.516-18.697-25.67c0.228-1.316,10.03,5.607,22.175,15.679c-1.02,3.874-1.689,7.018-0.87,6.016
		c0.566-0.681,1.537-2.451,2.608-4.573c1.551,1.303,3.125,2.645,4.724,4.019c-1.02,3.667-1.889,7.187-1.813,8.081
		c-0.025,0.026-0.051,0.013-0.088,0.039C343.519,97.87,342.196,98.644,340.571,99.697z"></path>
</g>
</svg>
