<!--?xml version="1.0" encoding="utf-8"?-->
<!-- Generator: Adobe Illustrator 22.1.0, SVG Export Plug-In . SVG Version: 6.00 Build 0)  -->
<svg version="1.1" id="_x35_" xmlns="http://www.w3.org/2000/svg" xmlns:xlink="http://www.w3.org/1999/xlink" x="0px" y="0px" viewBox="0 0 800 723.145" style="enable-background:new 0 0 800 723.145;" xml:space="preserve">
<style type="text/css">
	.st0{fill:#040000;}
</style>
<g>
	<path class="st0" d="M797.196,34.462c0,0-30.412,1.213-41.031,4.241c-10.64,3.029-33.112,1.327-40.194,3.331
		c-7.082,2.029-50.25,42.713-47.396,46.927c2.848,4.221-3.028,13.976-3.028,13.976s0,0,0.174,4.33
		c0.167,4.321-15.237,44.776-22.62,61.533c-7.396,16.751-16.723,30.11-16.416,37.896c0.308,7.779,0.839,20.743,0.839,20.743
		s-3.544,1.004-9.025-1.373c-5.461-2.373-6.138,2.84-8.631,8.141c-2.471,5.292-20.535,24.2-32.769,31.623
		c-12.262,7.411-30.553,20.275-36.677,23.98c-6.124,3.711-4.509-0.683-5.434-1.52c11.384-6.519,10.01-18.579,10.01-18.579
		l6.74-10.66c13.099-8.335,3.465-25.24-10.808-23.813c-0.83-0.649-1.836-1.205-2.988-1.701c1.522-2.78,3.685-7.275,6.742-14.491
		c8.167-19.377,14.807-21.38,18.786-22.849c5.455-1.989,10.915,3.906,10.915,3.906c-10.961-14.593-22.526,0.409-30.331,15.651
		c-3.304,6.446-5.924,12.918-7.539,17.213c-5.613-1.997-13.794-2.599-21.687-1.434c-0.604-4.186-1.495-9.387-2.781-14.646
		c-4.013-16.528-11.752-33.634-25.868-21.761c0,0,6.707-4.576,11.551-1.448c3.538,2.273,9.534,5.65,12.938,26.298
		c0.851,5.134,1.595,8.992,2.251,11.887c-2.734,0.521-5.393,1.233-7.872,2.204c-7.331-4.04-19.813-2.673-20.22,9.466
		c-0.423,12.141,3.268,14.586,10.599,18.634c0,0-1.38,10.451,1.408,12.93c2.78,2.493-10.01-3.933-12.831-7.289
		c-2.815-3.345-42.157-45.936-47.592-47.471c-5.427-1.501-4.676-5.004-4.676-5.004s-4.81-8.462-4.958-11.913
		c-0.134-3.463-43.772-109.111-54.98-120.788c-11.223-11.685-38.506-66.887-74.732-54.164c0,0-45.172-31.993-68.22-25.883
		c0,0,59.959,20.997,64.877,32.067c3.591-0.141,14.351,0.295,17.172,3.644c2.82,3.35,32.757,35.062,41.842,38.17
		c9.078,3.095,10.043,4.798,7.638,11.806c-0.709,2.064-0.918,6.786-0.335,13.312c-2.385-0.188-5.038-0.448-7.497-0.776
		c-4.576-0.63,2.459,3.008,7.953,4.99c0.195,1.536,0.43,3.17,0.697,4.858c-1.42-0.14-2.868-0.314-4.261-0.502
		c-3.713-0.509,0.261,1.81,4.844,3.76c0.489,2.599,1.065,5.325,1.749,8.146c-2.01-0.167-4.133-0.381-6.136-0.663
		c-4.355-0.597,1.816,2.659,7.155,4.696c0.757,2.828,1.628,5.763,2.593,8.764c-1.862-0.174-3.819-0.375-5.655-0.637
		c-4.315-0.582,1.702,2.608,7.003,4.643c1.232,3.477,2.612,7.049,4.146,10.654c-2.245-0.195-4.711-0.429-6.982-0.744
		c-4.883-0.664,3.465,3.524,9.045,5.366c1.051,2.292,2.184,4.57,3.37,6.875c-2.961-0.188-7.27-0.503-11.068-1.025
		c-6.586-0.906,10.921,7.041,13.212,6.136l0.228-0.723c0.63,1.132,1.294,2.278,1.971,3.398c0.214,0.361,0.415,0.683,0.623,1.058
		c-2.164-0.188-4.523-0.422-6.713-0.723c-5.073-0.691,4.114,3.839,9.667,5.56c19.095,30.834,31.424,40.603,31.591,44.67
		c0.168,4.322,0.335,8.65,4.093,12.831c1.146,1.293,2.928,2.726,4.81,4.093c-17.547,0.316-21.614,18.137-19.355,35.578
		c-2.338-2.781-4.423-4.865-6.178-6.117c-22.902-16.167-40.02-22.754-50.392-5.569c-10.371,17.187,3.384,73.46,29.307,98.8
		c13.467,13.167,22.136,21.54,27.737,27.424c-27.45-21.051-54.257-39.678-64.749-41.038c-24.803-3.242-26.525,4.141-26.525,4.141
		s-16.911-5.032-26.6,10.485c-9.688,15.545,0.06,27.806,0.06,27.806s-32.288,35.853-10.085,67.21
		c0.43,23.779,6.621,36.501,20.778,41.078c8.067,13.273,7.317,21.32,41.689,21.755c21.761,7.571,44.368,7.912,60.166-9.18
		c5.796-6.277,16.684-15.537,28.631-24.508c-10.854,10.01-24.007,22.719-32.958,30.458c-14.719,12.703-61.774,45.769-101.554,14.452
		c-39.785-31.337-40.541-50.365-40.059-60.77c0.483-10.405-5.634-29.226-7.156-22.231c-1.506,6.995-5.46,20.134-5.366,22.733
		c0.107,2.6-8.395-8.327-12.723-4.683c-4.336,3.625-3.847,15.725-2.754,20.884c1.104,5.167,4.556,46.592,4.69,50.037
		c0,0-4.443,1.058-2.48,5.313c1.957,4.249,24.985,42.291,24.985,42.291s1.011,5.199,4.141,8.597
		c-4.557,2.124-8.074,4.195-9.388,5.916c-5.112,6.688-144.22,90.197-152.112,94.418c-7.898,4.202-42.934,1.708-50.767,7.216
		c-7.851,5.508-30.551,9.004-30.551,9.004s-21.059,11.244-13.113,8.322c7.947-2.915,13.32-3.136,13.32-3.136
		s-7.644,10.706-2.378,7.893c5.272-2.801,13.104-8.315,21.111-9.931c7.987-1.621,25.179-8.811,30.532-9.018
		c5.374-0.221,29.628,1.414,34.842-2.693c5.206-4.1,154.685-97.111,157.526-93.332c1.346,1.802,9.239-0.785,18.559-4.308
		c3.732,1.441,7.437,2.412,10.479,2.291c0,0,16.657,13.192,28.315,13.588c11.657,0.409,55.354-4.811,65.017-9.52
		c9.661-4.718,31.295-23.759,31.295-23.759s0,0-1.567,5.246c-1.589,5.254-8.396,36.71-9.977,41.976
		c-1.574,5.26-4.093,9.696-4.093,9.696s3.652,1.58,4.442-1.059c0.784-2.613,17.534-54.391,17.534-54.391s9.354-12.503,10.111-15.98
		c0.757-3.498,10.286-11.665,10.286-11.665s-0.035,21.635,7.122,21.347c7.156-0.281,9.153-40.201,9.153-40.201l12.964-11.772
		l0.281,6.908l1.24,8.616c0,0,0.99,25.085-0.503,32.08c-1.52,6.974,1.601,18.124,1.601,18.124s-6.418,108.488-7.203,111.127
		c-0.791,2.64-7.47,15.036-3.852,15.746c3.612,0.73,1.506-6.996,5.943-8.033c0,0,1.962,4.261,5.688,7.563
		c3.711,3.317,3.23-8.777,0.409-12.14c-2.821-3.344,5.414-111.068,5.414-111.068s4.369-2.767,4.06-10.552
		c-0.308-7.786,2.747-43.417,2.747-43.417c7.706,13.541,49.058-5.413,54.499-3.9c5.434,1.508,3.619,68.26,3.826,73.467
		c0.202,5.18,2.171,9.428,3.297,15.45c0.281,6.907,11.155,9.95,19.196,9.622c8.06-0.321,10.499-6.479,4.307-4.502
		c-6.19,1.976-14.519-4.61-16.414-7.142c-1.89-2.507-5.957-82.031-5.207-85.534c0.763-3.484,2.338-8.757-0.583-14.693
		c-2.921-5.943-47.229,6.224-54.318,8.221c-7.088,2.029,5.843-33.139,5.843-33.139s18.09-18.036,31.397-66.197
		c13.313-48.167,5.165-83.777,5.614-95.06c0.443-11.27,13.917-21.775,17.314-26.237c3.41-4.47,0,0,11.49-3.928
		c11.491-3.918,54.76-42.016,64.193-52.789c9.413-10.774,2.09-14.8,12.509-23.016c10.426-8.221,1.313-12.187,8.295-16.783
		c3.558-2.351,10.245-13.34,16.107-25.742c1.91,0.556,4.068,1.22,6.031,1.917c3.309,1.199-0.864-2.312-4.697-4.797
		c0.047-0.121,0.094-0.235,0.147-0.348c1.615,0.113,8.557,0.595,14.326,1.513c6.016,0.939-8-5.943-12.174-6.466
		c0.321-0.763,0.656-1.528,0.951-2.304c2.352,0.328,6.366,0.965,9.829,1.762c4.381,1.011-4.227-4.114-8.348-5.535
		c0.563-1.514,1.099-2.994,1.594-4.456c2.373,0.249,5.601,0.625,8.462,1.159c4.007,0.711-2.873-3.075-7.335-4.723
		c0.233-0.757,0.455-1.515,0.642-2.251c0.509,0.074,1.006,0.153,1.494,0.248c2.206,0.381,1.086-0.576-1.078-1.81
		c0.099-0.448,0.214-0.897,0.308-1.339c2.324,0.033,5.333,0.093,8.046,0.321c3.947,0.302-2.767-2.587-7.377-3.873
		c0.128-0.831,0.228-1.641,0.275-2.385c0.027-0.209,0.035-0.436,0.046-0.657c2.412-0.014,6.198-0.007,9.529,0.221
		c4.523,0.308-4.952-3.423-9.24-4.181c0.046-0.624,0.095-1.233,0.141-1.883c1.453,0.027,2.954,0.094,4.381,0.181
		c3.075,0.208-0.335-1.447-4.16-2.767c0.021-0.288,0.04-0.576,0.067-0.871c2.332-0.456,5.453-1.039,8.314-1.408
		c3.906-0.482-3.222-1.955-8.006-2.257c0.094-1.106,0.188-2.211,0.288-3.317c1.696-0.309,3.504-0.602,5.22-0.825
		c3.129-0.389-0.818-1.393-4.958-1.944c0.068-0.69,0.133-1.352,0.181-2.036c2.278-0.549,5.266-1.22,7.966-1.683
		c3.752-0.635-2.827-1.741-7.605-1.894c0.275-2.795,0.563-5.488,0.846-8.028c2.164-0.153,4.73-0.321,7.074-0.348
		c3.691-0.046-2.07-2.011-6.686-2.961c0.649-5.555,1.299-9.977,1.815-12.06c1.554-6.124-3.029-8.53-1.327-11.196
		c1.676-2.667-3.825-5.91-0.314-7.786c3.503-1.871,36.361-31.773,39.75-36.221c3.418-4.482,12.43-3.108,18.788-0.756
		c6.378,2.345,10.083,5.655,7.228,1.433c-2.847-4.214-3.852-6.767,0.651-6.083c4.509,0.697,28.495-4.596,41.869-5.996
		C801.906,40.352,797.196,34.462,797.196,34.462z M496.376,388.314c-12.59-40.059-34.929-106.464-53.374-136.454
		c14.566,18.989,45.588,59.229,49.125,62.397c4.649,4.149-4.16,7.96,2.694,22.412C499.096,345.695,498.666,368.461,496.376,388.314z
		"></path>
</g>
</svg>
