<!--?xml version="1.0" encoding="utf-8"?-->
<!-- Generator: Adobe Illustrator 22.1.0, SVG Export Plug-In . SVG Version: 6.00 Build 0)  -->
<svg version="1.1" id="_x30_" xmlns="http://www.w3.org/2000/svg" xmlns:xlink="http://www.w3.org/1999/xlink" x="0px" y="0px" viewBox="0 0 481.713 800" style="width: 89px;" xml:space="preserve">
<style type="text/css">
	.st0{fill:#010101;}
</style>
<g>
	<path class="st0" d="M480.229,196.206c-1.41-32.346-14.771-44.688-18.34-27.512c-5.103,24.454-13.246,44.841-39.755,63.191
		c-36.177,25.042-34.652,19.368-59.099,29.558c11.518-19.865,14.24-33.365,8.852-52.586c-2.021-7.15-1.026-10.198,4.003-16.67
		c5.176-1.573,4.639-7.043-0.187-7.386c-1.606-0.098-2.404-1.842-1.85-3.464c0.456-1.353,2.666-5.005,5.005-6.782
		c19.205-14.779,24.031-22.523,38.305-34.489c34.97-29.321,35.614-41.647,36.03-52.904c0.416-11.241-13.516-11.111-13.801,0.024
		c-0.343,13.246-13.54,27.854-30.52,39.429c-9.089,6.188-38.06,23.281-43.057,16.842c-2.992-3.839,10.703-35.745,20.729-54.331
		c8.364-15.561,17.885-27.772,22.686-47.532c4.793-19.759-12.114-18.61-14.322-4.744c-1.916,12.089-8.942,24.129-19.809,44.409
		c-10.728,20.021-32.174,48.617-42.885,42.185c-11.274-6.766-16.459-40.032-15.015-55.048c1.418-15.007,5.714-34.31,5.714-50.042
		c0-15.725-13.581-14.29-14.298-4.997c-0.71,9.285-2.861,32.166-3.579,48.616c-0.725,16.434-11.787,61.292-27.168,62.906
		c-11.689,1.207-19.645-21.626-22.865-33.422c-3.22-11.795-10.833-43.195-8.575-62.375c1.426-12.154,6.423-22.882-3.579-26.453
		c-10.01-3.578-13.572,8.576-14.616,24.113c-0.881,13.369,6.423,70.3,8.527,85.087c1.076,7.507,2.591,14.754-1.598,16.621
		c-4.818,2.152-32.158-29.958-41.818-48.258c-10.181-19.295-10.768-31.489-6.44-39.136c9.13-16.083,3.758-21.398,0-21.976
		c-6.962-1.076-19.841,18.227-17.151,42.355c2.682,24.113,32.166,70.219,40.212,78.281c2.07,2.07,3.546,9.447-2.576,7.213
		c-10.85-3.961-21.26-6.709-34.954-15.275c-15.814-9.864-36.389-26.534-40.44-33.373c-4.059-6.839-9.081-16.922-16.759-10.597
		c-7.68,6.317,9.129,27.12,26.492,44.475c17.363,17.363,42.935,33.805,55.463,41.035c12.546,7.239,12.048,13.515,12.048,13.515
		s-5.307-4.818-12.538-5.788c-7.239-0.97-7.222,8.2-1.916,12.049c5.299,3.864,10.125,15.406,9.261,24.658
		c-3.049,32.597,22.433,48.901,15.292,57.06c-7.141,8.152-62.18,11.209-101.927-3.073c-39.739-14.265-81.533-35.663-94.779-47.891
		c-13.247-12.227-32.606,0-13.247,16.311c7.353,6.196,42.804,69.289,74.4,110.063c31.595,40.766,75.418,63.191,103.957,47.906
		c-25.49,34.644-2.046,111.082,26.492,179.359c28.531,68.286,94.779,164.092,132.488,194.652
		c37.709,30.593,49.936,27.52,60.143,23.452c10.172-4.083,5.078-24.463,0-48.934c-5.103-24.454-16.32-114.13,0-182.424
		c15.789-66.142,11.2-163.049-11.233-206.888c0,0,24.544-11.477,50.963-41.769C481.257,275.7,481.257,219.65,480.229,196.206z"></path>
</g>
</svg>
