<!--?xml version="1.0" encoding="utf-8"?-->
<!-- Generator: Adobe Illustrator 22.1.0, SVG Export Plug-In . SVG Version: 6.00 Build 0)  -->
<svg version="1.1" id="_x37_" xmlns="http://www.w3.org/2000/svg" xmlns:xlink="http://www.w3.org/1999/xlink" x="0px" y="0px" viewBox="0 0 696.372 800" style="enable-background:new 0 0 696.372 800;" xml:space="preserve">
<style type="text/css">
	.st0{fill:#010101;}
</style>
<g>
	<path class="st0" d="M675.933,234.635c-14.648,1.125-85.708,10.135-129.706-6.779c-43.981-16.914-80.583-16.852-100.571-12.414
		c-14.367,3.189-12.386-9.871,3.568-36.08c21.968-36.094,17.53-83.84,7.9-99.268c-5.335-8.564-0.808-27.695,4.514-40.604
		c7.886-19.166-8.212-20.576-14.871-10.571c-4.005,6.008-8.894,22.205-25.732,24.109c-10.571,1.199-38.36,1.124-54.145-6.763
		c-15.794-7.899-18.043-25.942-23.681-37.231c-5.652-11.263-20.3-7.886-20.3,2.266c0,10.147,0,29.327-3.395,37.213
		c-3.385,7.904-25.942,15.794-39.479,39.484c-13.524,23.676-11.272,71.059,2.266,90.239c12.4,22.553-24.818,28.191-59.788,14.648
		c-20.421-7.904-58.356-0.852-86.85,1.142C87.174,197.4,21.748,180.486,7.083,183.876c-14.666,3.372,3.39,46.241,23.693,68.799
		c20.3,22.551,45.118,69.917,101.516,85.725c56.394,15.79,93.942-9.523,104.892-6.762c4.51,1.124-18.055,18.595-27.066,58.646
		c-10.156,45.104,3.373,109.402,6.763,151.133c3.296,40.729-2.698,206.329-9.376,234.991c-6.673,28.636,35.692,35.131,90.976-20.286
		c55.287-55.435,132.702-204.557,148.498-273.351c15.785-68.816,3.372-107.158,3.372-107.158s18.052,9.014,59.788,0
		c41.728-9.024,152.272-82.336,173.699-107.149C705.265,243.646,690.599,233.494,675.933,234.635z"></path>
</g>
</svg>
